<svg width="200" height="185" viewBox="0 0 200 185" fill="none" xmlns="http://www.w3.org/2000/svg">
<g clip-path="url(#clip0_85_545)">
<path d="M8.10162 79.2348H45.5187L55.187 42.4587L71.5738 104.014L90.5999 61.0362L100.649 79.7119L110.769 52.87L122.71 92.2278L139.506 65.2316L149.795 102.737L162.851 77.6493H190.981" stroke="white" stroke-width="6" stroke-miterlimit="10"/>
<path d="M93.9167 150.051C93.9167 150.051 83.3028 150.738 80.7057 155.663C76.7537 163.142 77.8264 171.898 77.8264 171.898L85.0106 175.546V167.351L86.6761 176.079C86.6761 176.079 94.6507 177.693 99.9153 177.608C105.18 177.524 112.167 176.177 112.167 176.177L113.79 167.492V175.686L120.861 172.557C120.861 172.557 121.171 160.644 119.647 157.74C118.123 154.836 115.907 151.173 105.053 150.065C105.053 150.065 101.623 151.51 99.2943 151.468C97.4171 151.426 94.82 150.668 93.9167 150.051Z" fill="white"/>
<path d="M71.4044 136.048C71.4044 136.048 61.1009 136.483 57.2195 142.362C54.2978 146.796 55.1023 158.343 55.1023 158.343L62.4841 161.697V153.362L64.1073 162.048L74.6083 163.619C74.6083 163.619 75.3705 155.2 79.1531 152.24C82.9358 149.279 89.2449 147.399 89.2449 147.399C89.2449 147.399 85.5469 142.965 85.3211 140.945C85.0953 138.924 84.9541 136.02 84.9541 136.02H82.2018C82.2018 136.02 79.9859 137.184 77.3324 137.367C74.0155 137.619 71.4044 136.048 71.4044 136.048Z" fill="white"/>
<path d="M113.931 136.37C113.931 136.37 114.072 141.127 112.802 142.895C111.546 144.663 109.513 147.483 109.513 147.483C109.513 147.483 115.004 148.381 117.939 151.061C120.875 153.741 122.653 155.088 123.839 163.647C123.924 164.279 134.735 162.076 134.735 162.076L136.09 153.615L136.359 161.585L143.839 158.231C143.839 158.231 144.869 146.95 142.131 143.232C139.379 139.513 135.78 136.918 127.946 136.02C127.946 136.02 126.549 137.423 121.736 137.591C121.736 137.591 118.038 137.633 116.471 136.02L113.931 136.37Z" fill="white"/>
<path d="M99.5907 148.493C106.022 148.493 111.235 143.311 111.235 136.918C111.235 130.524 106.022 125.342 99.5907 125.342C93.1597 125.342 87.9464 130.524 87.9464 136.918C87.9464 143.311 93.1597 148.493 99.5907 148.493Z" fill="white"/>
<path d="M122.032 134.883C128.463 134.883 133.677 129.7 133.677 123.307C133.677 116.914 128.463 111.731 122.032 111.731C115.601 111.731 110.388 116.914 110.388 123.307C110.388 129.7 115.601 134.883 122.032 134.883Z" fill="white"/>
<path d="M76.8102 134.883C83.2411 134.883 88.4545 129.7 88.4545 123.307C88.4545 116.914 83.2411 111.731 76.8102 111.731C70.3792 111.731 65.1658 116.914 65.1658 123.307C65.1658 129.7 70.3792 134.883 76.8102 134.883Z" fill="white"/>
<path d="M38.0241 125.342C38.0241 125.342 12.0961 98.697 9.79546 73.637C7.93237 53.3057 10.6847 32.7358 37.2902 18.2274C63.8957 3.71902 88.8639 16.8804 99.859 33.9846C99.859 33.9846 113.677 5.86581 152.491 15.0002C191.306 24.1346 190.685 61.1772 190.332 68.8664C189.739 81.7331 176.57 111.648 161.496 125.342" stroke="white" stroke-width="6" stroke-miterlimit="10"/>
</g>
<defs>
<clipPath id="clip0_85_545">
<rect width="200" height="184.848" fill="white"/>
</clipPath>
</defs>
</svg>
