<svg width="900" height="900" viewBox="0 0 900 900" fill="none" xmlns="http://www.w3.org/2000/svg">
<rect width="900" height="900" rx="30" fill="#F1F8FF"/>
<path d="M519.097 396.922C512.988 390.815 504.703 387.384 496.065 387.384C487.426 387.384 479.141 390.815 473.032 396.922L450 419.922C437.712 431.79 421.253 438.358 404.17 438.209C387.086 438.061 370.745 431.209 358.665 419.128C346.584 407.048 339.732 390.706 339.584 373.623C339.435 356.539 346.002 340.081 357.871 327.793L541.282 144.316C584.706 134.44 630.137 138.504 671.118 155.933C712.098 173.361 746.541 203.265 769.549 241.394C792.557 279.522 802.958 323.934 799.274 368.314C795.59 412.693 778.008 454.782 749.029 488.595L680.355 558.148L519.097 396.922ZM162.047 201.066C195.748 167.345 239.842 145.983 287.193 140.438C334.543 134.892 382.38 145.487 422.961 170.509L311.774 281.728C287.692 305.761 273.965 338.26 273.526 372.279C273.086 406.299 285.969 439.141 309.421 463.789C332.873 488.436 365.035 502.934 399.034 504.185C433.033 505.436 466.174 493.34 491.373 470.482L496.065 466.019L634.291 604.213L496.065 742.439C483.846 754.654 467.277 761.516 450 761.516C432.723 761.516 416.154 754.654 403.935 742.439L162.015 500.519C122.307 460.808 100 406.95 100 350.792C100 294.635 122.34 240.777 162.047 201.066Z" fill="#3465FD"/>
</svg>
