<svg width="900" height="900" viewBox="0 0 900 900" fill="none" xmlns="http://www.w3.org/2000/svg">
<rect width="900" height="900" rx="30" fill="#F1F8FF"/>
<path d="M600 225V475M600 225L525 125M600 225L675 125M125 650L247.2 751.8C265.17 766.762 287.816 774.954 311.2 774.95H633.3C656.3 774.95 675 756.3 675 733.3C675 687.3 637.7 649.95 591.65 649.95H367.7M775 225H425V475H775V225Z" stroke="#3465FD" stroke-width="22" stroke-linecap="round" stroke-linejoin="round"/>
<path d="M275 600L312.5 637.5C322.446 647.446 335.935 653.033 350 653.033C364.065 653.033 377.554 647.446 387.5 637.5C397.446 627.554 403.033 614.065 403.033 600C403.033 585.935 397.446 572.446 387.5 562.5L329.3 504.25C320 494.961 308.96 487.596 296.812 482.577C284.663 477.558 271.644 474.983 258.5 475H125" stroke="#3465FD" stroke-width="22" stroke-linecap="round" stroke-linejoin="round"/>
</svg>
