<svg width="900" height="900" viewBox="0 0 900 900" fill="none" xmlns="http://www.w3.org/2000/svg">
<rect width="900" height="900" rx="30" fill="#F1F8FF"/>
<g clip-path="url(#clip0_130_564)">
<path d="M712.5 333.333V304.167L625 362.5L537.5 304.167V333.333L625 391.667M741.667 187.5H158.333C142.862 187.5 128.025 193.646 117.085 204.585C106.146 215.525 100 230.362 100 245.833L100 654.167C100 669.638 106.146 684.475 117.085 695.415C128.025 706.354 142.862 712.5 158.333 712.5H741.667C757.138 712.5 771.975 706.354 782.915 695.415C793.854 684.475 800 669.638 800 654.167V245.833C800 230.362 793.854 215.525 782.915 204.585C771.975 193.646 757.138 187.5 741.667 187.5ZM333.333 275C356.54 275 378.796 284.219 395.205 300.628C411.615 317.038 420.833 339.294 420.833 362.5C420.833 385.706 411.615 407.962 395.205 424.372C378.796 440.781 356.54 450 333.333 450C310.127 450 287.871 440.781 271.461 424.372C255.052 407.962 245.833 385.706 245.833 362.5C245.833 339.294 255.052 317.038 271.461 300.628C287.871 284.219 310.127 275 333.333 275ZM508.333 625H158.333V595.833C158.333 537.5 275 505.417 333.333 505.417C391.667 505.417 508.333 537.5 508.333 595.833M741.667 450H508.333V275H741.667" fill="#3465FD"/>
</g>
<defs>
<clipPath id="clip0_130_564">
<rect width="700" height="700" fill="white" transform="translate(100 100)"/>
</clipPath>
</defs>
</svg>
