<svg width="900" height="900" viewBox="0 0 900 900" fill="none" xmlns="http://www.w3.org/2000/svg">
<rect width="900" height="900" rx="30" fill="#F1F8FF"/>
<path d="M391.667 770.833V712.5H245.833C229.792 712.5 216.064 706.793 204.65 695.379C193.236 683.965 187.519 670.228 187.5 654.167V245.833C187.5 229.792 193.217 216.064 204.65 204.65C216.083 193.236 229.811 187.519 245.833 187.5H391.667V129.167H450V770.833H391.667ZM508.333 245.833V187.5H654.167C670.208 187.5 683.946 193.217 695.379 204.65C706.812 216.083 712.519 229.811 712.5 245.833V654.167C712.5 670.208 706.793 683.946 695.379 695.379C683.965 706.812 670.228 712.519 654.167 712.5H508.333V654.167H654.167V245.833H508.333ZM508.333 479.167V420.833H595.833V479.167H508.333ZM508.333 362.5V304.167H595.833V362.5H508.333ZM304.167 595.833H391.667V537.5H304.167V595.833ZM304.167 479.167H391.667V420.833H304.167V479.167ZM304.167 362.5H391.667V304.167H304.167V362.5Z" fill="#3465FD"/>
</svg>
