<svg width="900" height="900" viewBox="0 0 900 900" fill="none" xmlns="http://www.w3.org/2000/svg">
<path d="M375 862.5V787.5H187.5C166.875 787.5 149.225 780.162 134.55 765.487C119.875 750.812 112.525 733.15 112.5 712.5V187.5C112.5 166.875 119.85 149.225 134.55 134.55C149.25 119.875 166.9 112.525 187.5 112.5H375V37.5H450V862.5H375ZM525 187.5V112.5H712.5C733.125 112.5 750.788 119.85 765.488 134.55C780.188 149.25 787.525 166.9 787.5 187.5V712.5C787.5 733.125 780.163 750.787 765.488 765.487C750.813 780.187 733.15 787.525 712.5 787.5H525V712.5H712.5V187.5H525ZM525 487.5V412.5H637.5V487.5H525ZM525 337.5V262.5H637.5V337.5H525ZM262.5 637.5H375V562.5H262.5V637.5ZM262.5 487.5H375V412.5H262.5V487.5ZM262.5 337.5H375V262.5H262.5V337.5Z" fill="#3465FD"/>
</svg>
