<svg width="900" height="900" viewBox="0 0 900 900" fill="none" xmlns="http://www.w3.org/2000/svg">
<g clip-path="url(#clip0_127_559)">
<path d="M787.5 300V262.5L675 337.5L562.5 262.5V300L675 375M825 112.5H75C55.1088 112.5 36.0322 120.402 21.967 134.467C7.90176 148.532 0 167.609 0 187.5L0 712.5C0 732.391 7.90176 751.468 21.967 765.533C36.0322 779.598 55.1088 787.5 75 787.5H825C844.891 787.5 863.968 779.598 878.033 765.533C892.098 751.468 900 732.391 900 712.5V187.5C900 167.609 892.098 148.532 878.033 134.467C863.968 120.402 844.891 112.5 825 112.5ZM300 225C329.837 225 358.452 236.853 379.55 257.95C400.647 279.048 412.5 307.663 412.5 337.5C412.5 367.337 400.647 395.952 379.55 417.05C358.452 438.147 329.837 450 300 450C270.163 450 241.548 438.147 220.45 417.05C199.353 395.952 187.5 367.337 187.5 337.5C187.5 307.663 199.353 279.048 220.45 257.95C241.548 236.853 270.163 225 300 225ZM525 675H75V637.5C75 562.5 225 521.25 300 521.25C375 521.25 525 562.5 525 637.5M825 450H525V225H825" fill="#3465FD"/>
</g>
<defs>
<clipPath id="clip0_127_559">
<rect width="900" height="900" fill="white"/>
</clipPath>
</defs>
</svg>
