<svg width="900" height="900" viewBox="0 0 900 900" fill="none" xmlns="http://www.w3.org/2000/svg">
<path d="M642.857 160.714V482.143M642.857 160.714L546.429 32.1429M642.857 160.714L739.286 32.1429M32.1429 707.143L189.257 838.029C212.362 857.266 241.478 867.797 271.543 867.793H685.671C715.243 867.793 739.286 843.814 739.286 814.243C739.286 755.1 691.329 707.079 632.121 707.079H344.186M867.857 160.714H417.857V482.143H867.857V160.714Z" stroke="#3465FD" stroke-width="20" stroke-linecap="round" stroke-linejoin="round"/>
<path d="M225 642.857L273.214 691.071C286.002 703.859 303.345 711.042 321.429 711.042C339.512 711.042 356.856 703.859 369.643 691.071C382.43 678.284 389.614 660.941 389.614 642.857C389.614 624.773 382.43 607.43 369.643 594.643L294.814 519.75C282.858 507.806 268.663 498.337 253.044 491.884C237.424 485.431 220.686 482.121 203.786 482.143H32.1429" stroke="#3465FD" stroke-width="20" stroke-linecap="round" stroke-linejoin="round"/>
</svg>
