<svg width="900" height="801" viewBox="0 0 900 801" fill="none" xmlns="http://www.w3.org/2000/svg">
<path d="M538.839 331.614C530.984 323.762 520.332 319.351 509.226 319.351C498.119 319.351 487.468 323.762 479.613 331.614L450 361.185C434.201 376.445 413.04 384.888 391.076 384.698C369.111 384.507 348.1 375.697 332.569 360.165C317.037 344.633 308.227 323.622 308.036 301.658C307.845 279.694 316.289 258.533 331.548 242.734L567.363 6.8352C623.193 -5.86335 681.605 -0.637227 734.294 21.7704C786.984 44.1781 831.267 82.6267 860.849 131.649C890.43 180.671 903.803 237.772 899.067 294.832C894.33 351.892 871.725 406.006 834.466 449.48L746.171 538.905L538.839 331.614ZM79.7753 79.7995C123.105 36.444 179.797 8.97874 240.676 1.84864C301.556 -5.28145 363.06 8.3409 415.235 40.511L272.28 183.508C241.319 214.408 223.67 256.191 223.104 299.931C222.539 343.67 239.103 385.896 269.255 417.585C299.408 449.275 340.759 467.916 384.473 469.524C428.186 471.132 470.795 455.58 503.194 426.191L509.226 420.453L686.945 598.131L509.226 775.85C493.517 791.555 472.213 800.377 450 800.377C427.787 800.377 406.483 791.555 390.774 775.85L79.7335 464.81C28.6808 413.753 0 344.507 0 272.305C0 200.102 28.7226 130.857 79.7753 79.7995Z" fill="#3465FD"/>
</svg>
